HIERARCHY
ROOT Root
{
OFFSET 0.000000 0.000000 0.000000
  CHANNELS 6 Xposition Yposition Zposition Zrotation Yrotation Xrotation
 JOINT Hips
 {
   OFFSET 0.085596 102.120926 -2.392036
   CHANNELS 6 Xposition Yposition Zposition Zrotation Yrotation Xrotation
  JOINT Spine1
  {
    OFFSET 5.185611 0.480941 0.025949
    CHANNELS 3 Zrotation Yrotation Xrotation
   JOINT Spine2
   {
     OFFSET 7.290425 -0.000001 -0.000000
     CHANNELS 3 Zrotation Yrotation Xrotation
    JOINT Chest
    {
      OFFSET 7.480175 0.000001 -0.000000
      CHANNELS 3 Zrotation Yrotation Xrotation
     JOINT Neck1
     {
       OFFSET 27.156862 -0.581946 -0.197435
       CHANNELS 3 Zrotation Yrotation Xrotation
      JOINT Neck2
      {
        OFFSET 8.200202 -0.000001 -0.000000
        CHANNELS 3 Zrotation Yrotation Xrotation
       JOINT Head
       {
         OFFSET 6.850518 -0.000002 0.000000
         CHANNELS 3 Zrotation Yrotation Xrotation
        JOINT HeadEnd
        {
          OFFSET 15.974357 0.326172 -0.002222
          CHANNELS 3 Zrotation Yrotation Xrotation
        }
        JOINT Jaw
        {
          OFFSET 0.170673 3.264252 -0.001817
          CHANNELS 3 Zrotation Yrotation Xrotation
        }
        JOINT LeftEye
        {
          OFFSET 4.805113 8.357908 3.194319
          CHANNELS 3 Zrotation Yrotation Xrotation
        }
        JOINT RightEye
        {
          OFFSET 4.809319 8.371241 -3.181319
          CHANNELS 3 Zrotation Yrotation Xrotation
        }
       }
      }
     }
     JOINT LeftShoulder
     {
       OFFSET 23.348534 5.253791 1.660146
       CHANNELS 3 Zrotation Yrotation Xrotation
      JOINT LeftArm
      {
        OFFSET 19.279833 -0.000006 -0.000017
        CHANNELS 3 Zrotation Yrotation Xrotation
       JOINT LeftForeArm
       {
         OFFSET 23.427656 -0.000003 -0.000004
         CHANNELS 3 Zrotation Yrotation Xrotation
        JOINT LeftHand
        {
          OFFSET 23.191952 -0.000008 -0.000006
          CHANNELS 3 Zrotation Yrotation Xrotation
         JOINT LeftHandThumb1
         {
           OFFSET 1.972496 3.212433 0.805939
           CHANNELS 3 Zrotation Yrotation Xrotation
          JOINT LeftHandThumb2
          {
            OFFSET 4.626032 -0.000004 -0.000004
            CHANNELS 3 Zrotation Yrotation Xrotation
           JOINT LeftHandThumb3
           {
             OFFSET 2.696718 0.000000 0.000007
             CHANNELS 3 Zrotation Yrotation Xrotation
            JOINT LeftHandThumbEnd
            {
              OFFSET 3.104518 0.000004 0.000000
              CHANNELS 3 Zrotation Yrotation Xrotation
            }
           }
          }
         }
         JOINT LeftHandIndex1
         {
           OFFSET 3.038124 2.270145 0.102100
           CHANNELS 3 Zrotation Yrotation Xrotation
          JOINT LeftHandIndex2
          {
            OFFSET 6.445965 0.000000 0.000008
            CHANNELS 3 Zrotation Yrotation Xrotation
           JOINT LeftHandIndex3
           {
             OFFSET 3.494659 0.000000 0.000000
             CHANNELS 3 Zrotation Yrotation Xrotation
            JOINT LeftHandIndex4
            {
              OFFSET 2.150097 0.000000 -0.000004
              CHANNELS 3 Zrotation Yrotation Xrotation
             JOINT LeftHandIndexEnd
             {
               OFFSET 2.558216 0.000003 0.000000
               CHANNELS 3 Zrotation Yrotation Xrotation
             }
            }
           }
          }
         }
         JOINT LeftHandMiddle1
         {
           OFFSET 2.998920 0.890102 -0.414703
           CHANNELS 3 Zrotation Yrotation Xrotation
          JOINT LeftHandMiddle2
          {
            OFFSET 6.251595 0.000002 0.000000
            CHANNELS 3 Zrotation Yrotation Xrotation
           JOINT LeftHandMiddle3
           {
             OFFSET 4.182251 -0.000004 0.000008
             CHANNELS 3 Zrotation Yrotation Xrotation
            JOINT LeftHandMiddle4
            {
              OFFSET 2.848400 -0.000001 0.000004
              CHANNELS 3 Zrotation Yrotation Xrotation
             JOINT LeftHandMiddleEnd
             {
               OFFSET 2.274048 0.000002 0.000000
               CHANNELS 3 Zrotation Yrotation Xrotation
             }
            }
           }
          }
         }
         JOINT LeftHandRing1
         {
           OFFSET 2.712849 -0.383375 0.136517
           CHANNELS 3 Zrotation Yrotation Xrotation
          JOINT LeftHandRing2
          {
            OFFSET 5.960812 -0.000001 -0.000008
            CHANNELS 3 Zrotation Yrotation Xrotation
           JOINT LeftHandRing3
           {
             OFFSET 4.155865 0.000000 0.000004
             CHANNELS 3 Zrotation Yrotation Xrotation
            JOINT LeftHandRing4
            {
              OFFSET 2.507320 0.000000 0.000000
              CHANNELS 3 Zrotation Yrotation Xrotation
             JOINT LeftHandRingEnd
             {
               OFFSET 1.865696 0.000000 0.000000
               CHANNELS 3 Zrotation Yrotation Xrotation
             }
            }
           }
          }
         }
         JOINT LeftHandPinky1
         {
           OFFSET 2.675140 -1.653357 0.574287
           CHANNELS 3 Zrotation Yrotation Xrotation
          JOINT LeftHandPinky2
          {
            OFFSET 5.257679 0.000002 0.000000
            CHANNELS 3 Zrotation Yrotation Xrotation
           JOINT LeftHandPinky3
           {
             OFFSET 3.113903 0.000001 -0.000004
             CHANNELS 3 Zrotation Yrotation Xrotation
            JOINT LeftHandPinky4
            {
              OFFSET 1.752155 0.000000 0.000000
              CHANNELS 3 Zrotation Yrotation Xrotation
             JOINT LeftHandPinkyEnd
             {
               OFFSET 1.962643 -0.000001 -0.000004
               CHANNELS 3 Zrotation Yrotation Xrotation
             }
            }
           }
          }
         }
        }
       }
      }
     }
     JOINT RightShoulder
     {
       OFFSET 23.301741 5.440480 -1.424998
       CHANNELS 3 Zrotation Yrotation Xrotation
      JOINT RightArm
      {
        OFFSET -19.306400 0.000001 -0.000006
        CHANNELS 3 Zrotation Yrotation Xrotation
       JOINT RightForeArm
       {
         OFFSET -23.456160 0.000001 -0.000006
         CHANNELS 3 Zrotation Yrotation Xrotation
        JOINT RightHand
        {
          OFFSET -23.199221 0.000003 0.000002
          CHANNELS 3 Zrotation Yrotation Xrotation
         JOINT RightHandThumb1
         {
           OFFSET -1.972160 -3.212732 -0.806084
           CHANNELS 3 Zrotation Yrotation Xrotation
          JOINT RightHandThumb2
          {
            OFFSET -4.626308 0.000000 0.000007
            CHANNELS 3 Zrotation Yrotation Xrotation
           JOINT RightHandThumb3
           {
             OFFSET -2.696688 0.000000 -0.000000
             CHANNELS 3 Zrotation Yrotation Xrotation
            JOINT RightHandThumbEnd
            {
              OFFSET -3.105056 -0.000004 -0.000003
              CHANNELS 3 Zrotation Yrotation Xrotation
            }
           }
          }
         }
         JOINT RightHandIndex1
         {
           OFFSET -3.038502 -2.269806 -0.102615
           CHANNELS 3 Zrotation Yrotation Xrotation
          JOINT RightHandIndex2
          {
            OFFSET -6.445782 -0.000004 0.000008
            CHANNELS 3 Zrotation Yrotation Xrotation
           JOINT RightHandIndex3
           {
             OFFSET -3.493858 0.000000 -0.000011
             CHANNELS 3 Zrotation Yrotation Xrotation
            JOINT RightHandIndex4
            {
              OFFSET -2.149529 -0.000002 -0.000004
              CHANNELS 3 Zrotation Yrotation Xrotation
             JOINT RightHandIndexEnd
             {
               OFFSET -2.558128 -0.000001 0.000000
               CHANNELS 3 Zrotation Yrotation Xrotation
             }
            }
           }
          }
         }
         JOINT RightHandMiddle1
         {
           OFFSET -2.998993 -0.889952 0.414894
           CHANNELS 3 Zrotation Yrotation Xrotation
          JOINT RightHandMiddle2
          {
            OFFSET -6.251987 -0.000003 -0.000008
            CHANNELS 3 Zrotation Yrotation Xrotation
           JOINT RightHandMiddle3
           {
             OFFSET -4.181046 -0.000003 0.000004
             CHANNELS 3 Zrotation Yrotation Xrotation
            JOINT RightHandMiddle4
            {
              OFFSET -2.847336 0.000002 0.000000
              CHANNELS 3 Zrotation Yrotation Xrotation
             JOINT RightHandMiddleEnd
             {
               OFFSET -2.274467 -0.000001 0.000008
               CHANNELS 3 Zrotation Yrotation Xrotation
             }
            }
           }
          }
         }
         JOINT RightHandRing1
         {
           OFFSET -2.712662 0.383348 -0.135979
           CHANNELS 3 Zrotation Yrotation Xrotation
          JOINT RightHandRing2
          {
            OFFSET -5.961094 -0.000002 0.000004
            CHANNELS 3 Zrotation Yrotation Xrotation
           JOINT RightHandRing3
           {
             OFFSET -4.155010 0.000001 0.000000
             CHANNELS 3 Zrotation Yrotation Xrotation
            JOINT RightHandRing4
            {
              OFFSET -2.506302 -0.000000 -0.000008
              CHANNELS 3 Zrotation Yrotation Xrotation
             JOINT RightHandRingEnd
             {
               OFFSET -1.866306 0.000002 0.000000
               CHANNELS 3 Zrotation Yrotation Xrotation
             }
            }
           }
          }
         }
         JOINT RightHandPinky1
         {
           OFFSET -2.674698 1.653210 -0.574352
           CHANNELS 3 Zrotation Yrotation Xrotation
          JOINT RightHandPinky2
          {
            OFFSET -5.257671 -0.000001 0.000004
            CHANNELS 3 Zrotation Yrotation Xrotation
           JOINT RightHandPinky3
           {
             OFFSET -3.113091 -0.000001 0.000000
             CHANNELS 3 Zrotation Yrotation Xrotation
            JOINT RightHandPinky4
            {
              OFFSET -1.752007 0.000002 -0.000008
              CHANNELS 3 Zrotation Yrotation Xrotation
             JOINT RightHandPinkyEnd
             {
               OFFSET -1.963306 0.000000 0.000004
               CHANNELS 3 Zrotation Yrotation Xrotation
             }
            }
           }
          }
         }
        }
       }
      }
     }
    }
   }
  }
  JOINT LeftLeg
  {
    OFFSET -8.889949 2.513977 10.026885
    CHANNELS 3 Zrotation Yrotation Xrotation
   JOINT LeftShin
   {
     OFFSET 43.208843 0.000003 0.000000
     CHANNELS 3 Zrotation Yrotation Xrotation
    JOINT LeftFoot
    {
      OFFSET 45.578201 -0.000003 -0.000004
      CHANNELS 3 Zrotation Yrotation Xrotation
     JOINT LeftToeBase
     {
       OFFSET 16.212999 0.000000 0.000000
       CHANNELS 3 Zrotation Yrotation Xrotation
      JOINT LeftToeEnd
      {
        OFFSET 7.750711 -0.135288 0.000000
        CHANNELS 3 Zrotation Yrotation Xrotation
      }
     }
    }
   }
  }
  JOINT RightLeg
  {
    OFFSET -8.806253 2.771246 -9.963077
    CHANNELS 3 Zrotation Yrotation Xrotation
   JOINT RightShin
   {
     OFFSET -43.239971 -0.000000 0.000001
     CHANNELS 3 Zrotation Yrotation Xrotation
    JOINT RightFoot
    {
      OFFSET -45.578156 -0.000000 -0.000003
      CHANNELS 3 Zrotation Yrotation Xrotation
     JOINT RightToeBase
     {
       OFFSET -16.208389 0.000003 0.000002
       CHANNELS 3 Zrotation Yrotation Xrotation
      JOINT RightToeEnd
      {
        OFFSET -7.754828 0.135361 0.000002
        CHANNELS 3 Zrotation Yrotation Xrotation
      }
     }
    }
   }
  }
 }
}
MOTION
Frames: 4
Frame Time: 0.008333
0.000000 0.000000 0.000000 0.000000 0.000000 0.000000 0.085596 102.120926 -2.392036 89.843841 4.396622 84.941055 5.570699 0.293091 1.158326 6.115112 -0.566252 -0.798216 1.847119 -1.480212 -2.491191 9.702248 2.143359 1.924461 -8.059158 2.781111 -1.033451 -15.144834 0.296236 17.175470 0.000000 0.000000 0.000000 0.000000 0.000000 0.000000 0.000000 0.000000 0.000000 0.000000 0.000000 0.000000 -111.229031 -61.974476 112.494704 54.248944 -70.221245 8.098086 12.551200 -0.233029 -0.222815 -1.691883 5.208536 -12.320453 28.126116 -25.557656 50.290953 -17.715232 -16.513267 34.776931 0.000000 -25.538733 0.000000 0.000000 0.000000 0.000000 -0.658380 -0.225259 -3.112784 -4.579095 -16.242734 -0.789354 0.000000 -19.779147 0.000000 -7.063425 -18.085624 -4.518332 0.000000 0.000000 0.000000 -10.653335 -2.302934 -2.159360 13.699383 -23.587298 -1.405480 0.000000 -27.504436 0.000000 -3.675020 -23.768379 -3.876290 0.000000 0.000000 0.000000 -14.894677 -5.059497 -0.151217 21.162563 -21.035633 -3.116382 0.000000 -32.748650 0.000000 -0.399775 -19.648636 2.173004 0.000000 0.000000 0.000000 -18.446696 -16.045550 -0.883540 25.199499 -16.335262 0.966872 0.000000 -24.120000 0.000000 -4.054054 -19.395545 -5.878699 0.000000 0.000000 0.000000 51.043704 -63.703655 126.561653 42.765829 -68.032534 17.812617 13.109377 -0.278085 -0.321831 -3.411545 -5.032696 -11.078265 28.126116 -25.557656 50.290953 -17.715232 -16.513267 34.776931 0.000000 -25.538733 0.000000 0.000000 0.000000 0.000000 -0.658380 -0.225259 -3.112784 -4.579095 -16.242734 -0.789354 0.000000 -19.779147 0.000000 -7.063425 -18.085624 -4.518332 0.000000 0.000000 0.000000 -10.653335 -2.302934 -2.159360 13.699383 -23.587298 -1.405480 0.000000 -27.504436 0.000000 -3.675020 -23.768379 -3.876290 0.000000 0.000000 0.000000 -14.894677 -5.059497 -0.151217 21.162563 -21.035633 -3.116382 0.000000 -32.748650 0.000000 -0.399775 -19.648636 2.173004 0.000000 0.000000 0.000000 -18.446696 -16.045550 -0.883540 25.199499 -16.335262 0.966872 0.000000 -24.120000 0.000000 -4.054054 -19.395545 -5.878699 0.000000 0.000000 0.000000 -170.124217 1.069435 -8.440880 -0.036526 0.004669 0.000000 -84.805245 -7.011738 -2.236549 -1.828012 -0.062425 5.565862 0.000000 0.000000 0.000000 7.903591 -0.617980 -4.211059 0.603421 0.005459 0.000069 -84.506682 2.554752 -0.859122 -1.586980 -0.070054 5.567933 0.000000 0.000000 0.000000
0.000000 0.000000 0.000000 0.000000 0.000000 0.000000 0.075776 102.124146 -2.384073 89.846332 4.342740 84.952013 5.524761 0.290459 1.156151 6.127588 -0.571184 -0.798615 1.845233 -1.478766 -2.491142 9.703199 2.150514 1.921876 -8.057120 2.791827 -1.037291 -15.142438 0.295915 17.169152 0.000000 0.000000 0.000000 0.000000 0.000000 0.000000 0.000000 0.000000 0.000000 0.000000 0.000000 0.000000 -111.231296 -61.998336 112.491397 54.287599 -70.208305 8.097376 12.537038 -0.233055 -0.222580 -1.697660 5.221511 -12.329238 28.126116 -25.557656 50.290953 -17.715232 -16.513267 34.776931 0.000000 -25.538733 0.000000 0.000000 0.000000 0.000000 -0.658380 -0.225259 -3.112784 -4.579095 -16.242734 -0.789354 0.000000 -19.779147 0.000000 -7.063425 -18.085624 -4.518332 0.000000 0.000000 0.000000 -10.653335 -2.302934 -2.159360 13.699383 -23.587298 -1.405480 0.000000 -27.504436 0.000000 -3.675020 -23.768379 -3.876290 0.000000 0.000000 0.000000 -14.894677 -5.059497 -0.151217 21.162563 -21.035633 -3.116382 0.000000 -32.748650 0.000000 -0.399775 -19.648636 2.173004 0.000000 0.000000 0.000000 -18.446696 -16.045550 -0.883540 25.199499 -16.335262 0.966872 0.000000 -24.120000 0.000000 -4.054054 -19.395545 -5.878699 0.000000 0.000000 0.000000 51.016552 -63.673920 126.587264 42.750781 -68.007407 17.825027 13.106915 -0.278397 -0.321841 -3.400383 -5.002961 -11.116051 28.126116 -25.557656 50.290953 -17.715232 -16.513267 34.776931 0.000000 -25.538733 0.000000 0.000000 0.000000 0.000000 -0.658380 -0.225259 -3.112784 -4.579095 -16.242734 -0.789354 0.000000 -19.779147 0.000000 -7.063425 -18.085624 -4.518332 0.000000 0.000000 0.000000 -10.653335 -2.302934 -2.159360 13.699383 -23.587298 -1.405480 0.000000 -27.504436 0.000000 -3.675020 -23.768379 -3.876290 0.000000 0.000000 0.000000 -14.894677 -5.059497 -0.151217 21.162563 -21.035633 -3.116382 0.000000 -32.748650 0.000000 -0.399775 -19.648636 2.173004 0.000000 0.000000 0.000000 -18.446696 -16.045550 -0.883540 25.199499 -16.335262 0.966872 0.000000 -24.120000 0.000000 -4.054054 -19.395545 -5.878699 0.000000 0.000000 0.000000 -170.337688 1.034685 -8.147709 0.281473 0.004219 0.000000 -84.988227 -7.277558 -2.252660 -2.000185 -0.059409 5.565758 0.000000 0.000000 0.000000 7.688942 -0.609582 -4.111155 0.838296 -0.002189 0.000000 -84.579420 2.443512 -0.863978 -1.601275 -0.069784 5.567924 0.000000 0.000000 0.000000
0.000000 0.000000 0.000000 0.000000 0.000000 0.000000 0.065085 102.128654 -2.376909 89.849384 4.290231 84.963749 5.478511 0.285784 1.154250 6.140965 -0.576230 -0.799356 1.843440 -1.477197 -2.491193 9.704456 2.157255 1.919343 -8.055504 2.802442 -1.041196 -15.139286 0.296144 17.162822 0.000000 0.000000 0.000000 0.000000 0.000000 0.000000 0.000000 0.000000 0.000000 0.000000 0.000000 0.000000 -111.241174 -62.020922 112.494018 54.312218 -70.192793 8.106433 12.522886 -0.232959 -0.222396 -1.700554 5.228182 -12.335983 28.126116 -25.557656 50.290953 -17.715232 -16.513267 34.776931 0.000000 -25.538733 0.000000 0.000000 0.000000 0.000000 -0.658380 -0.225259 -3.112784 -4.579095 -16.242734 -0.789354 0.000000 -19.779147 0.000000 -7.063425 -18.085624 -4.518332 0.000000 0.000000 0.000000 -10.653335 -2.302934 -2.159360 13.699383 -23.587298 -1.405480 0.000000 -27.504436 0.000000 -3.675020 -23.768379 -3.876290 0.000000 0.000000 0.000000 -14.894677 -5.059497 -0.151217 21.162563 -21.035633 -3.116382 0.000000 -32.748650 0.000000 -0.399775 -19.648636 2.173004 0.000000 0.000000 0.000000 -18.446696 -16.045550 -0.883540 25.199499 -16.335262 0.966872 0.000000 -24.120000 0.000000 -4.054054 -19.395545 -5.878699 0.000000 0.000000 0.000000 50.986770 -63.640647 126.615594 42.734536 -67.980531 17.840378 13.103662 -0.278356 -0.321781 -3.388135 -4.971816 -11.155824 28.126116 -25.557656 50.290953 -17.715232 -16.513267 34.776931 0.000000 -25.538733 0.000000 0.000000 0.000000 0.000000 -0.658380 -0.225259 -3.112784 -4.579095 -16.242734 -0.789354 0.000000 -19.779147 0.000000 -7.063425 -18.085624 -4.518332 0.000000 0.000000 0.000000 -10.653335 -2.302934 -2.159360 13.699383 -23.587298 -1.405480 0.000000 -27.504436 0.000000 -3.675020 -23.768379 -3.876290 0.000000 0.000000 0.000000 -14.894677 -5.059497 -0.151217 21.162563 -21.035633 -3.116382 0.000000 -32.748650 0.000000 -0.399775 -19.648636 2.173004 0.000000 0.000000 0.000000 -18.446696 -16.045550 -0.883540 25.199499 -16.335262 0.966872 0.000000 -24.120000 0.000000 -4.054054 -19.395545 -5.878699 0.000000 0.000000 0.000000 -170.604247 0.995522 -7.841832 0.700345 0.003089 0.000000 -85.217359 -7.555654 -2.271968 -2.165263 -0.056520 5.565650 0.000000 0.000000 0.000000 7.682650 -0.606384 -4.024948 0.861524 0.008216 0.000136 -84.646336 2.342553 -0.866221 -1.612676 -0.069593 5.567920 0.000000 0.000000 0.000000
0.000000 0.000000 0.000000 0.000000 0.000000 0.000000 0.051153 102.132111 -2.373867 89.850182 4.234915 84.973917 5.432803 0.284311 1.151894 6.152351 -0.581078 -0.799439 1.841437 -1.475874 -2.491062 9.705352 2.164550 1.916829 -8.052327 2.812926 -1.044868 -15.138415 0.295766 17.156272 0.000000 0.000000 0.000000 0.000000 0.000000 0.000000 0.000000 0.000000 0.000000 0.000000 0.000000 0.000000 -111.235981 -62.046009 112.484954 54.364363 -70.182543 8.096881 12.508412 -0.232895 -0.222106 -1.709064 5.247422 -12.347229 28.126116 -25.557656 50.290953 -17.715232 -16.513267 34.776931 0.000000 -25.538733 0.000000 0.000000 0.000000 0.000000 -0.658380 -0.225259 -3.112784 -4.579095 -16.242734 -0.789354 0.000000 -19.779147 0.000000 -7.063425 -18.085624 -4.518332 0.000000 0.000000 0.000000 -10.653335 -2.302934 -2.159360 13.699383 -23.587298 -1.405480 0.000000 -27.504436 0.000000 -3.675020 -23.768379 -3.876290 0.000000 0.000000 0.000000 -14.894677 -5.059497 -0.151217 21.162563 -21.035633 -3.116382 0.000000 -32.748650 0.000000 -0.399775 -19.648636 2.173004 0.000000 0.000000 0.000000 -18.446696 -16.045550 -0.883540 25.199499 -16.335262 0.966872 0.000000 -24.120000 0.000000 -4.054054 -19.395545 -5.878699 0.000000 0.000000 0.000000 50.960750 -63.613865 126.640186 42.721047 -67.957738 17.849487 13.101756 -0.278560 -0.321788 -3.378131 -4.943435 -11.191362 28.126116 -25.557656 50.290953 -17.715232 -16.513267 34.776931 0.000000 -25.538733 0.000000 0.000000 0.000000 0.000000 -0.658380 -0.225259 -3.112784 -4.579095 -16.242734 -0.789354 0.000000 -19.779147 0.000000 -7.063425 -18.085624 -4.518332 0.000000 0.000000 0.000000 -10.653335 -2.302934 -2.159360 13.699383 -23.587298 -1.405480 0.000000 -27.504436 0.000000 -3.675020 -23.768379 -3.876290 0.000000 0.000000 0.000000 -14.894677 -5.059497 -0.151217 21.162563 -21.035633 -3.116382 0.000000 -32.748650 0.000000 -0.399775 -19.648636 2.173004 0.000000 0.000000 0.000000 -18.446696 -16.045550 -0.883540 25.199499 -16.335262 0.966872 0.000000 -24.120000 0.000000 -4.054054 -19.395545 -5.878699 0.000000 0.000000 0.000000 -170.875562 0.953874 -7.563281 1.132844 0.003236 0.000000 -85.458334 -7.809005 -2.281514 -2.344433 -0.053323 5.565529 0.000000 0.000000 0.000000 7.412047 -0.595738 -3.913047 1.155657 -0.003517 -0.000069 -84.723973 2.221145 -0.873267 -1.629971 -0.069274 5.567913 0.000000 0.000000 0.000000
